Coordinates
version=1
nRows=60
nColumns=12
inDegrees=yes

Units are S.I. units (second, meters, Newtons, ...)
Angles are in degrees

endheader
time	SC_y	SC_z	SC_x	AC_y	AC_z	AC_x	GH_y	GH_z	GH_yy	EL_x	PS_y
       0.0              -28.03         0.1478          58.28           51.5         -10.91         -4.644          117.4          17.81          38.06          105.8          155.8
   0.04148              -28.03         0.1472          58.28           51.5         -10.91         -4.642          117.4          17.82          38.08          105.7          155.8
   0.08297              -28.03         0.1465          58.28           51.5         -10.91          -4.64          117.3          17.82          38.09          105.7          155.8
    0.1245              -28.04         0.1458          58.28           51.5         -10.91         -4.637          117.3          17.83          38.11          105.7          155.8
    0.1659              -28.04          0.145          58.28           51.5         -10.92         -4.635          117.2          17.84          38.13          105.7          155.8
    0.2074              -28.04         0.1442          58.28           51.5         -10.92         -4.632          117.2          17.85          38.15          105.7          155.8
    0.2489              -28.04         0.1434          58.28          51.49         -10.92         -4.629          117.1          17.86          38.17          105.7          155.7
    0.2904              -28.05         0.1425          58.28          51.49         -10.92         -4.626          117.1          17.87          38.19          105.7          155.7
    0.3319              -28.05         0.1415          58.27          51.49         -10.92         -4.623          117.0          17.88          38.21          105.7          155.7
    0.3734              -28.05         0.1405          58.27          51.49         -10.92          -4.62          116.9          17.89          38.24          105.6          155.7
    0.4148              -28.05         0.1393          58.27          51.49         -10.92         -4.616          116.8           17.9          38.27          105.6          155.7
    0.4563              -28.06         0.1381          58.27          51.48         -10.93         -4.612          116.8          17.91           38.3          105.6          155.7
    0.4978              -28.06         0.1368          58.27          51.48         -10.93         -4.608          116.7          17.92          38.33          105.6          155.6
    0.5393              -28.06         0.1354          58.26          51.48         -10.93         -4.603          116.6          17.94          38.36          105.6          155.6
    0.5808              -28.07         0.1339          58.26          51.47         -10.93         -4.598          116.5          17.95           38.4          105.5          155.6
    0.6223              -28.07         0.1322          58.26          51.47         -10.93         -4.593          116.3          17.97          38.44          105.5          155.6
    0.6637              -28.08         0.1304          58.25          51.47         -10.94         -4.587          116.2          17.99          38.49          105.5          155.5
    0.7052              -28.08         0.1285          58.25          51.46         -10.94          -4.58          116.1          18.01          38.53          105.5          155.5
    0.7467              -28.09         0.1263          58.25          51.46         -10.94         -4.573          115.9          18.03          38.59          105.4          155.5
    0.7882              -28.09          0.124          58.24          51.45         -10.95         -4.565          115.8          18.06          38.64          105.4          155.4
    0.8297               -28.1         0.1214          58.24          51.45         -10.95         -4.557          115.6          18.08          38.71          105.4          155.4
    0.8712              -28.11         0.1186          58.23          51.44         -10.95         -4.548          115.4          18.11          38.78          105.3          155.3
    0.9126              -28.12         0.1155          58.23          51.44         -10.96         -4.537          115.2          18.15          38.85          105.3          155.3
    0.9541              -28.13          0.112          58.22          51.43         -10.96         -4.526          114.9          18.18          38.94          105.2          155.2
    0.9956              -28.14         0.1082          58.22          51.42         -10.97         -4.513          114.7          18.22          39.03          105.2          155.1
     1.037              -28.15         0.1039          58.21          51.41         -10.98         -4.499          114.4          18.27          39.14          105.1          155.1
     1.079              -28.16        0.09907           58.2           51.4         -10.98         -4.483          114.0          18.32          39.25          105.0          155.0
      1.12              -28.18        0.09366          58.19          51.39         -10.99         -4.465          113.7          18.37          39.39          105.0          154.9
     1.162              -28.19        0.08754          58.18          51.38          -11.0         -4.445          113.2          18.44          39.54          104.9          154.8
     1.203              -28.21         0.0806          58.17          51.37         -11.01         -4.422          112.8          18.51          39.71          104.8          154.7
     1.245              -28.23        0.07268          58.16          51.35         -11.02         -4.396          112.2          18.59           39.9          104.6          154.5
     1.286              -28.26        0.06358          58.14          51.33         -11.04         -4.366          111.6          18.68          40.12          104.5          154.4
     1.327              -28.28        0.05308          58.12          51.31         -11.05         -4.331          110.9          18.79          40.38          104.4          154.2
     1.369              -28.32        0.04088           58.1          51.29         -11.07         -4.291          110.0          18.92          40.68          104.2          154.0
      1.41              -28.35        0.02661          58.08          51.26         -11.09         -4.244          109.0          19.07          41.03          104.0          153.7
     1.452               -28.4       0.009785          58.05          51.22         -11.12         -4.188          107.9          19.24          41.44          103.7          153.5
     1.493              -28.45       -0.01021          58.01          51.18         -11.15         -4.122          106.5          19.45          41.93          103.4          153.1
     1.535              -28.52       -0.03418          57.97          51.14         -11.18         -4.043          104.8           19.7          42.52          103.1          152.7
     1.576               -28.6       -0.06318          57.92          51.08         -11.23         -3.947          102.8           20.0          43.23          102.7          152.2
     1.618              -28.69        -0.0986          57.86           51.0         -11.28          -3.83          100.3          20.37           44.1          102.1          151.6
     1.659              -28.81        -0.1423          57.79          50.92         -11.34         -3.685           97.3          20.82          45.17          101.5          150.9
     1.701              -28.95        -0.1968          57.69          50.81         -11.42         -3.505          93.52          21.39           46.5          100.7          149.9
     1.742              -29.14        -0.2655          57.57          50.67         -11.53         -3.278          88.76           22.1          48.19          99.68          148.8
     1.784              -29.37        -0.3528          57.42          50.49         -11.66          -2.99           82.7          23.01          50.33           98.4          147.3
     1.825              -29.67        -0.4646          57.23          50.27         -11.82          -2.62          74.95          24.17          53.06          96.76          145.4
     1.867              -30.05         -0.608          56.98          49.98         -12.04         -2.146          65.01          25.66          56.58          94.65          142.9
     1.908              -30.54        -0.7911          56.67          49.61         -12.31         -1.541           52.3          27.56          61.06          91.96          139.8
      1.95              -31.16         -1.021          56.27          49.14         -12.65        -0.7797          36.33          29.95          66.71          88.58          135.9
     1.991              -31.91         -1.302          55.79          48.57         -13.07         0.1479          16.86          32.87          73.58          84.46          131.1
     2.033              -32.78         -1.627          55.23          47.92         -13.56          1.223         -5.699          36.25          81.55          79.68          125.5
     2.074              -33.72          -1.98          54.63           47.2         -14.08          2.387         -30.13          39.91          90.19          74.51          119.5
     2.116              -34.66         -2.332          54.02          46.49         -14.61          3.552         -54.56          43.57          98.82          69.33          113.5
     2.157              -35.53         -2.657          53.46          45.84         -15.09          4.627         -77.13          46.95          106.8          64.55          107.9
     2.199              -36.28         -2.938          52.98          45.27         -15.51          5.554         -96.59          49.86          113.7          60.43          103.1
      2.24               -36.9         -3.168          52.58           44.8         -15.85          6.316         -112.6          52.25          119.3          57.05          99.21
     2.282              -37.39         -3.352          52.27          44.43         -16.13          6.921         -125.3          54.16          123.8          54.36          96.08
     2.323              -37.77         -3.495          52.02          44.14         -16.34          7.395         -135.2          55.64          127.3          52.25          93.63
     2.365              -38.07         -3.607          51.83          43.92         -16.51          7.764         -143.0          56.81          130.0          50.61          91.73
     2.406               -38.3         -3.694          51.68          43.74         -16.64          8.053         -149.0          57.71          132.2          49.33          90.24
     2.448              -38.49         -3.763          51.56           43.6         -16.74           8.28         -153.8          58.43          133.9          48.32          89.06
